<svg id="Solid" height="512" viewBox="0 0 512 512" width="512" xmlns="http://www.w3.org/2000/svg"><path d="m448 240a24.042 24.042 0 0 0 22.629-16h-45.258a24.042 24.042 0 0 0 22.629 16z"/><path d="m272 288h40v32h-40z"/><path d="m416 416v-176h.022l-.022-.028a39.958 39.958 0 0 1 -64 0 39.958 39.958 0 0 1 -64 0 39.958 39.958 0 0 1 -64 0 39.958 39.958 0 0 1 -64 0 39.958 39.958 0 0 1 -64 0l-.022.028h.022v176h32v-136a8 8 0 0 1 8-8h80a8 8 0 0 1 8 8v136zm-160-136a8 8 0 0 1 8-8h112a8 8 0 0 1 8 8v96a8 8 0 0 1 -8 8h-112a8 8 0 0 1 -8-8z"/><path d="m272 336h40v32h-40z"/><path d="m208 416v-72a8 8 0 1 1 -8-8 8 8 0 0 1 8 8v-56h-64v128z"/><path d="m168 160h48v48h-48z"/><path d="m232 160h48v48h-48z"/><path d="m104 160h48v48h-48z"/><path d="m128 240a24.042 24.042 0 0 0 22.629-16h-45.258a24.042 24.042 0 0 0 22.629 16z"/><path d="m192 240a24.042 24.042 0 0 0 22.629-16h-45.258a24.042 24.042 0 0 0 22.629 16z"/><path d="m424 208h44.456l-18-48h-26.456z"/><path d="m328 288h40v32h-40z"/><path d="m328 336h40v32h-40z"/><path d="m424 128h-336a24.042 24.042 0 0 0 -22.629 16h381.258a24.042 24.042 0 0 0 -22.629-16z"/><path d="m344 64h-176v48h176zm-24 32h-128a8 8 0 0 1 0-16h128a8 8 0 0 1 0 16z"/><path d="m296 160h48v48h-48z"/><path d="m320 240a24.042 24.042 0 0 0 22.629-16h-45.258a24.042 24.042 0 0 0 22.629 16z"/><path d="m360 160h48v48h-48z"/><path d="m384 240a24.042 24.042 0 0 0 22.629-16h-45.258a24.042 24.042 0 0 0 22.629 16z"/><path d="m256 240a24.042 24.042 0 0 0 22.629-16h-45.258a24.042 24.042 0 0 0 22.629 16z"/><path d="m32 432h448v16h-448z"/><path d="m86.629 224h-45.258a24 24 0 0 0 45.258 0z"/><path d="m88 160h-26.456l-18 48h44.456z"/></svg>